<svg height='100px' width='100px'  fill="#000000" xmlns="http://www.w3.org/2000/svg" xmlns:xlink="http://www.w3.org/1999/xlink" version="1.1" x="0px" y="0px" viewBox="0 0 520 520" style="enable-background:new 0 0 520 520;" xml:space="preserve"><g><g><path d="M464.999,412.503h-39.615v-45c0-2.762-2.238-5-5-5h-50.077v-35c0-2.762-2.238-5-5-5h-44.846v-30c0-2.762-2.238-5-5-5    h-55.462V187.502h60c0.001,27.988-0.091,25.332,0.228,26.417c0.185,0.621,0.101,0.408,0.383,0.932    c0.282,0.532,0.16,0.351,0.562,0.833c0.102,0.123,0.34,0.498,1.047,0.973c0.852,0.572,1.926,0.846,2.775,0.846    c14.162,0,86.56-0.001,100.005-0.001c4.183,0,6.521-4.854,3.904-8.123l-37.501-46.877l37.501-46.876    c2.613-3.265,0.284-8.124-3.904-8.124h-75v-15c0-2.761-2.238-5-5-5h-85v-15c0-2.761-2.238-5-5-5h-20c-2.761,0-5,2.239-5,5v215    h-19.923c-2.761,0-5,2.238-5,5v30H160.23c-2.761,0-5,2.238-5,5v35h-50.077c-2.761,0-5,2.238-5,5v45H60.538c-2.761,0-5,2.238-5,5    v50c0,2.761,2.239,5,5,5h404.461c2.762,0,5-2.239,5-5v-50C469.999,414.741,467.761,412.503,464.999,412.503z M335.656,187.502    l-5.657,8.486v-8.486H335.656z M414.596,117.502l-33.501,41.877c-1.461,1.826-1.461,4.421,0,6.247l33.501,41.876h-80.254    c16.354-24.532,15.084-22.439,15.423-23.564c0.094-0.315,0.19-0.459,0.216-1.255c0.003-0.062,0.018-0.119,0.018-0.181v-0.02    c0-0.004,0-0.008,0-0.013v-64.968H414.596z M339.999,97.502v80h-80v-55h55c2.762,0,5-2.239,5-5c0-2.761-2.238-5-5-5h-55v-15    H339.999z M239.999,77.502h10c0,25.744,0,188.253,0,210h-10V77.502z M215.076,297.503c35.761,0,63.152,0,95.385,0v25h-95.385    V297.503z M165.23,332.503c21.686,0,174.056,0,195.077,0v30H165.23V332.503z M459.999,462.503H65.538v-40h39.615    c2.761,0,5-2.239,5-5v-45c13.293,0,292.563,0,305.231,0v40h-80.385c-2.762,0-5,2.238-5,5c0,2.761,2.238,5,5,5    c26.48,0,98.624,0,125,0V462.503z"></path><circle cx="52.499" cy="385.001" r="7.5"></circle><circle cx="147.499" cy="235.001" r="7.5"></circle><circle cx="437.499" cy="65.001" r="7.5"></circle><circle cx="462.499" cy="195.001" r="7.5"></circle><circle cx="357.499" cy="265.001" r="7.5"></circle><circle cx="254.999" cy="437.501" r="5"></circle><circle cx="467.499" cy="350.001" r="7.501"></circle><circle cx="192.498" cy="60" r="7.5"></circle><path d="M234.999,432.503h-110c-2.761,0-5,2.238-5,5c0,2.761,2.239,5,5,5h110c2.761,0,5-2.239,5-5    C239.999,434.741,237.76,432.503,234.999,432.503z"></path><path d="M409.999,282.503c0,13.785,11.215,25,25,25c13.785,0,25-11.215,25-25c0-13.785-11.215-25-25-25    C421.214,257.503,409.999,268.718,409.999,282.503z M449.999,282.503c0,8.271-6.729,15-15,15c-8.272,0-15-6.729-15-15    c0-8.271,6.728-15,15-15C443.27,267.503,449.999,274.231,449.999,282.503z"></path><path d="M107.499,157.502c20.678,0,37.5-16.822,37.5-37.5c0-20.678-16.822-37.5-37.5-37.5c-20.678,0-37.5,16.822-37.5,37.5    C69.999,140.68,86.821,157.502,107.499,157.502z M107.499,92.502c15.164,0,27.5,12.336,27.5,27.5c0,15.164-12.336,27.5-27.5,27.5    s-27.5-12.336-27.5-27.5C79.999,104.839,92.335,92.502,107.499,92.502z"></path></g></g></svg>