<svg height='100px' width='100px'  fill="#000000" xmlns="http://www.w3.org/2000/svg" xmlns:xlink="http://www.w3.org/1999/xlink" version="1.1" x="0px" y="0px" viewBox="0 0 60 60" style="enable-background:new 0 0 60 60;" xml:space="preserve"><path d="M47.3076172,20.9541016C46.8818359,12.6396484,39.9775391,6,31.5673828,6  c-8.2578125,0-15.0751953,6.4365234-15.6865234,14.5634766c-0.1582031-0.0068359-0.3212891-0.0107422-0.4931641-0.0107422  c-5.0751953,0-9.2041016,4.1289063-9.2041016,9.2041016c0,4.2290039,2.8343506,7.8412476,6.8515625,8.8914185V50  c0,2.2060547,1.7949219,4,4.0009766,4h25.9306641c2.2060547,0,4-1.7939453,4-4V38.6504517  c4.0159302-1.0482788,6.8496094-4.6627808,6.8496094-8.8936157C53.8164063,25.7089844,51.1230469,22.1259766,47.3076172,20.9541016z   M44.9667969,50c0,1.1025391-0.8974609,2-2,2H17.0361328c-1.1035156,0-2.0009766-0.8974609-2.0009766-2V33.0791016  c0-1.1025391,0.8974609-2,2.0009766-2h9.4199219h7.0908203h9.4199219c1.1025391,0,2,0.8974609,2,2V50z M27.4560547,29.0791016  v-2.6298828c0-1.4013672,1.1396484-2.5410156,2.5400391-2.5410156c1.40625,0,2.5507813,1.1396484,2.5507813,2.5410156v2.6298828  H27.4560547z M46.9667969,36.5596313v-3.4805298c0-2.2060547-1.7939453-4-4-4H34.546875v-2.6298828  c0-2.5039063-2.0410156-4.5410156-4.5507813-4.5410156c-2.5029297,0-4.5400391,2.0371094-4.5400391,4.5410156v2.6298828h-8.4199219  c-2.2060547,0-4.0009766,1.7939453-4.0009766,4v3.479187c-2.8699951-0.980896-4.8515625-3.6741333-4.8515625-6.8014526  c0-3.9726563,3.2314453-7.2041016,7.2041016-7.2041016c0.4960938,0,0.8808594,0.0332031,1.2480469,0.1083984  c0.2949219,0.0605469,0.5976563-0.0146484,0.8300781-0.203125c0.2333984-0.1884766,0.3681641-0.4716797,0.3701172-0.7714844  C17.8730469,14.1396484,24.0332031,8,31.5673828,8c7.5693359,0,13.7421875,6.1611328,13.7607422,13.7333984  c0.0009766,0.4716797,0.3300781,0.8779297,0.7910156,0.9755859c3.3007813,0.7060547,5.6972656,3.6699219,5.6972656,7.0478516  C51.8164063,32.8851929,49.8355103,35.5794678,46.9667969,36.5596313z"></path><path d="M25.8190308,41.8047485c0.6115112-0.6712036,0.9944458-1.5546875,0.9944458-2.5322876  c0-2.0810547-1.6933594-3.7744141-3.7744141-3.7744141c-2.0820313,0-3.7753906,1.6933594-3.7753906,3.7744141  c0,0.9776611,0.3829346,1.8612671,0.9946289,2.5324097c-1.6437988,0.9605103-2.753418,2.7393188-2.753418,4.7761841  c0,0.5527344,0.4472656,1,1,1s1-0.4472656,1-1c0-1.9482422,1.5849609-3.5332031,3.5341797-3.5332031  c1.9482422,0,3.5332031,1.5849609,3.5332031,3.5332031c0,0.5527344,0.4472656,1,1,1s1-0.4472656,1-1  C28.5722656,44.5441284,27.4625854,42.7652588,25.8190308,41.8047485z M23.0390625,41.0478516  c-0.9785156,0-1.7753906-0.796875-1.7753906-1.7753906s0.796875-1.7744141,1.7753906-1.7744141  s1.7744141,0.7958984,1.7744141,1.7744141S24.0175781,41.0478516,23.0390625,41.0478516z"></path><path d="M41.4980469,36.7011719h-9.7509766c-0.5527344,0-1,0.4472656-1,1s0.4472656,1,1,1h9.7509766c0.5527344,0,1-0.4472656,1-1  S42.0507813,36.7011719,41.4980469,36.7011719z"></path><path d="M41.4980469,40.5400391h-9.7509766c-0.5527344,0-1,0.4472656-1,1s0.4472656,1,1,1h9.7509766c0.5527344,0,1-0.4472656,1-1  S42.0507813,40.5400391,41.4980469,40.5400391z"></path><path d="M41.4980469,44.3779297h-9.7509766c-0.5527344,0-1,0.4472656-1,1s0.4472656,1,1,1h9.7509766c0.5527344,0,1-0.4472656,1-1  S42.0507813,44.3779297,41.4980469,44.3779297z"></path><path d="M31.5771484,10.9414063c-5.9257813,0-10.7705078,4.8291016-10.8007813,10.765625  c-0.0029297,0.5517578,0.4423828,1.0019531,0.9951172,1.0048828c0.0019531,0,0.0029297,0,0.0048828,0  c0.5498047,0,0.9970703-0.4443359,1-0.9951172c0.0244141-4.8388672,3.9726563-8.7753906,8.8007813-8.7753906  c0.5527344,0,1-0.4472656,1-1S32.1298828,10.9414063,31.5771484,10.9414063z"></path></svg>