<svg height='100px' width='100px'  fill="#000000" xmlns="http://www.w3.org/2000/svg" xmlns:xlink="http://www.w3.org/1999/xlink" version="1.1" x="0px" y="0px" viewBox="0 0 32 32" enable-background="new 0 0 32 32" xml:space="preserve"><g><g><path d="M16.343,10.132C16.343,10.132,16.343,10.132,16.343,10.132l1.165,1.165c0.613,0.613,1.166,1.288,1.644,2.005l2.079,3.117    c0.095,0.142,0.253,0.223,0.416,0.223c0.004,0,0.008,0,0.011,0c0.3,0.008,0.509-0.221,0.509-0.5c0-0.068-0.013-0.133-0.038-0.192    l-0.163-1.465c-0.273-2.46-1.203-4.807-2.654-6.794c0.01-0.139-0.033-0.281-0.14-0.388L18.817,6.95l0.354-0.354    c0.283-0.283,0.439-0.66,0.439-1.061c0-0.401-0.156-0.778-0.439-1.061c-0.566-0.566-1.555-0.566-2.121,0l-0.354,0.354    l-0.354-0.354c-0.096-0.096-0.229-0.141-0.362-0.139C13.545,2.505,10.605,1.5,7.504,1.5c-0.225,0-0.422,0.15-0.481,0.367    C6.962,2.083,7.054,2.313,7.247,2.429l2.094,1.256c0.921,0.553,1.773,1.218,2.534,1.979l1.973,1.973L2.298,17.972    c-0.495,0.443-0.778,1.052-0.797,1.716C1.482,20.352,1.73,20.976,2.2,21.445c0.452,0.452,1.053,0.701,1.691,0.701    c0.681,0,1.33-0.291,1.783-0.797L16.01,9.799L16.343,10.132z M16.801,6.348l0.403,0.403c0.303,0.304,0.585,0.626,0.856,0.957    l-1.364,1.364l-0.917-0.917L15.636,8.01l-0.707-0.707c0,0,0,0,0,0L14.575,6.95l1.376-1.376    C16.243,5.819,16.528,6.075,16.801,6.348z M19.983,12.748c-0.514-0.772-1.108-1.498-1.769-2.158l-0.812-0.812l1.267-1.267    c1.167,1.672,1.945,3.602,2.242,5.629L19.983,12.748z M17.757,5.182c0.189-0.188,0.518-0.189,0.707,0    c0.095,0.094,0.146,0.219,0.146,0.353c0,0.133-0.052,0.259-0.146,0.354L18.11,6.243l-0.2-0.2    c-0.002-0.002-0.004-0.004-0.005-0.006l-0.391-0.391c-0.002-0.002-0.004-0.003-0.005-0.005l-0.106-0.106L17.757,5.182z     M9.854,2.828L9.578,2.662c2.019,0.318,3.92,1.101,5.579,2.293l-1.289,1.289l-1.286-1.286C11.764,4.138,10.846,3.422,9.854,2.828z     M4.929,20.683C4.42,21.253,3.45,21.28,2.907,20.738c-0.272-0.273-0.417-0.636-0.406-1.022c0.011-0.387,0.175-0.741,0.463-0.999    L14.556,8.345l0.345,0.345l0.267,0.267l0.134,0.134L4.929,20.683z"></path><path d="M25,17.5c-2.23,0-4.151,1.337-5.013,3.25c-0.018,0.03-0.033,0.059-0.045,0.093c-0.221,0.517-0.364,1.074-0.417,1.657H16.5    v-4.092c0.581-0.207,1-0.757,1-1.408c0-0.827-0.673-1.5-1.5-1.5s-1.5,0.673-1.5,1.5c0,0.651,0.419,1.201,1,1.408V23    c0,0.276,0.224,0.5,0.5,0.5h3.525c0.065,0.715,0.269,1.39,0.582,2H10.5v-3.092c0.581-0.207,1-0.757,1-1.408    c0-0.827-0.673-1.5-1.5-1.5S8.5,20.173,8.5,21c0,0.651,0.419,1.201,1,1.408V26c0,0.276,0.224,0.5,0.5,0.5h10.761    c0.223,0.269,0.47,0.517,0.739,0.739V28.5h-9.092c-0.207-0.581-0.757-1-1.408-1c-0.827,0-1.5,0.673-1.5,1.5s0.673,1.5,1.5,1.5    c0.651,0,1.201-0.419,1.408-1H22c0.276,0,0.5-0.224,0.5-0.5v-1.107c0.751,0.385,1.599,0.607,2.5,0.607c3.032,0,5.5-2.467,5.5-5.5    S28.032,17.5,25,17.5z M16,16.5c0.275,0,0.5,0.224,0.5,0.5s-0.225,0.5-0.5,0.5s-0.5-0.224-0.5-0.5S15.725,16.5,16,16.5z M10,20.5    c0.275,0,0.5,0.224,0.5,0.5s-0.225,0.5-0.5,0.5S9.5,21.276,9.5,21S9.725,20.5,10,20.5z M11,29.5c-0.275,0-0.5-0.224-0.5-0.5    s0.225-0.5,0.5-0.5s0.5,0.224,0.5,0.5S11.275,29.5,11,29.5z M25,27.5c-1.557,0-2.93-0.795-3.738-2h3.33    c0.207,0.581,0.757,1,1.408,1c0.827,0,1.5-0.673,1.5-1.5s-0.673-1.5-1.5-1.5c-0.651,0-1.201,0.419-1.408,1H21    c-0.075,0-0.145,0.019-0.208,0.049C20.612,24.064,20.5,23.546,20.5,23c0-0.529,0.108-1.029,0.276-1.5h1.816    c0.207,0.581,0.757,1,1.408,1c0.827,0,1.5-0.673,1.5-1.5s-0.673-1.5-1.5-1.5c-0.651,0-1.201,0.419-1.408,1h-1.33    c0.808-1.205,2.182-2,3.738-2c2.481,0,4.5,2.019,4.5,4.5S27.481,27.5,25,27.5z M25.5,25c0-0.276,0.225-0.5,0.5-0.5    s0.5,0.224,0.5,0.5s-0.225,0.5-0.5,0.5S25.5,25.276,25.5,25z M23.5,21c0-0.276,0.225-0.5,0.5-0.5s0.5,0.224,0.5,0.5    s-0.225,0.5-0.5,0.5S23.5,21.276,23.5,21z"></path></g></g></svg>