<?xml version="1.0" encoding="UTF-8"?>
<svg width="354px" height="378px" viewBox="0 0 354 378" version="1.1" xmlns="http://www.w3.org/2000/svg" xmlns:xlink="http://www.w3.org/1999/xlink">
    <title>Group</title>
    <g id="Page-1" stroke="none" stroke-width="1" fill="none" fill-rule="evenodd" opacity="0.202165876">
        <g id="Group" transform="translate(0.000000, -0.000000)" fill="#FFFFFF" fill-rule="nonzero">
            <path d="M182.18,260.16 C182.18,260.16 237.28,273.72 280.93,239.43 C324.58,205.14 323.21,153.43 323.21,153.43 C323.21,153.43 273.82,138.06 228.96,170.76 C184.1,203.46 182.18,260.16 182.18,260.16 Z" id="Path"></path>
            <path d="M182,286.02 C182,286.02 191,324.81 226.29,341.27 C261.58,357.73 293.53,340.48 293.53,340.48 C293.53,340.48 287.53,304.69 252.8,286.96 C218.07,269.23 182,286.02 182,286.02 Z" id="Path"></path>
            <path d="M265.03,269.23 C265.03,269.23 284.08,290.41 311.88,288.49 C339.68,286.57 353.71,264.71 353.71,264.71 C353.71,264.71 337.54,244.39 309.71,245.31 C281.88,246.23 265.03,269.23 265.03,269.23 Z" id="Path"></path>
            <path d="M237.17,135.54 C237.17,135.54 207.8,86.99 152.68,80.37 C97.56,73.75 61.97,111.29 61.97,111.29 C61.97,111.29 86.03,157.08 140.87,165.68 C195.71,174.28 237.17,135.54 237.17,135.54 Z" id="Path"></path>
            <path d="M255.57,117.38 C255.57,117.38 276.65,83.6 263.32,47 C249.99,10.4 215.21,0 215.21,0 C215.21,0 194.21,29.58 206.21,66.64 C218.21,103.7 255.57,117.38 255.57,117.38 Z" id="Path"></path>
            <path d="M185,70.55 C185,70.55 186.5,42.1 165.48,23.79 C144.46,5.48 119.1,11.03 119.1,11.03 C119.1,11.03 116.16,36.83 136.51,55.88 C156.86,74.93 185,70.55 185,70.55 Z" id="Path"></path>
            <path d="M135.57,202.26 C135.57,202.26 86.99,231.63 80.38,286.75 C73.77,341.87 111.29,377.45 111.29,377.45 C111.29,377.45 157.08,353.45 165.68,298.56 C174.28,243.67 135.57,202.26 135.57,202.26 Z" id="Path"></path>
            <path d="M117.38,183.83 C117.38,183.83 83.57,162.76 47,176.09 C10.43,189.42 0,224.2 0,224.2 C0,224.2 29.58,245.2 66.64,233.2 C103.7,221.2 117.38,183.83 117.38,183.83 Z" id="Path"></path>
            <path d="M70.57,254.43 C70.57,254.43 42.12,252.92 23.82,273.94 C5.52,294.96 11.03,320.33 11.03,320.33 C11.03,320.33 36.84,323.27 55.89,302.92 C74.94,282.57 70.57,254.43 70.57,254.43 Z" id="Path"></path>
        </g>
    </g>
</svg>