<?xml version="1.0" encoding="UTF-8"?>
<svg width="375px" height="373px" viewBox="0 0 375 373" version="1.1" xmlns="http://www.w3.org/2000/svg" xmlns:xlink="http://www.w3.org/1999/xlink">
    <title>Untitled 3</title>
    <defs>
        <filter id="filter-1">
            <feColorMatrix in="SourceGraphic" type="matrix" values="0 0 0 0 0.435294 0 0 0 0 0.815686 0 0 0 0 0.549020 0 0 0 1.000000 0"></feColorMatrix>
        </filter>
    </defs>
    <g id="Page-1" stroke="none" stroke-width="1" fill="none" fill-rule="evenodd">
        <g id="Group" transform="translate(156.000000, 47.000000)" fill="#253A7E" fill-rule="nonzero">
            <path d="M84,120.759427 C84,120.759427 109.785129,127.120365 130.212005,111.035073 C150.638882,94.9497817 149.997763,70.6928431 149.997763,70.6928431 C149.997763,70.6928431 126.884741,63.4828422 105.891621,78.8222715 C84.8985018,94.1617009 84,120.759427 84,120.759427 Z" id="Path"></path>
            <path d="M84,133.308369 C84,133.308369 88.1961804,151.153743 104.64987,158.72618 C121.10356,166.298618 136,158.36274 136,158.36274 C136,158.36274 133.202546,141.897519 117.009952,133.740817 C100.817359,125.584114 84,133.308369 84,133.308369 Z" id="Path"></path>
            <path d="M123,125.053979 C123,125.053979 131.80751,134.82935 144.660465,133.943197 C157.513419,133.057045 164,122.967828 164,122.967828 C164,122.967828 156.524019,113.589381 143.657194,114.013995 C130.79037,114.43861 123,125.053979 123,125.053979 Z" id="Path"></path>
            <path d="M110,63.2663223 C110,63.2663223 96.4214041,40.4751808 70.9378425,37.3675113 C45.4542808,34.2598417 29,51.8824875 29,51.8824875 C29,51.8824875 40.1236301,73.3779842 65.4777397,77.415138 C90.8318493,81.4522918 110,63.2663223 110,63.2663223 Z" id="Path"></path>
            <path d="M118.403705,55 C118.403705,55 128.098281,39.1719203 121.967888,22.0224911 C115.837494,4.87306185 99.8423634,0 99.8423634,0 C99.8423634,0 90.184579,13.8601125 95.703313,31.2250809 C101.222047,48.5900494 118.403705,55 118.403705,55 Z" id="Path"></path>
            <path d="M85.9890216,32.799679 C85.9890216,32.799679 86.6928085,19.6858805 76.8304088,11.2460333 C66.9680091,2.80618624 55.0693195,5.36441406 55.0693195,5.36441406 C55.0693195,5.36441406 53.6898973,17.2567164 63.2379388,26.0376605 C72.7859804,34.8186047 85.9890216,32.799679 85.9890216,32.799679 Z" id="Path"></path>
            <path d="M63.2781528,94 C63.2781528,94 40.4700486,107.579371 37.3666816,133.064387 C34.2633146,158.549404 51.8787957,175 51.8787957,175 C51.8787957,175 73.3770067,163.903476 77.4146702,138.524802 C81.4523338,113.146127 63.2781528,94 63.2781528,94 Z" id="Path"></path>
            <path d="M55,85.5922399 C55,85.5922399 39.1578633,75.9024789 22.0224911,82.0327359 C4.88711876,88.1629929 0,104.157767 0,104.157767 C0,104.157767 13.8601125,113.815336 31.2250809,108.296725 C48.5900494,102.778114 55,85.5922399 55,85.5922399 Z" id="Path"></path>
            <path d="M32.8007792,118.011181 C32.8007792,118.011181 19.6881545,117.302707 11.2536718,127.165042 C2.81918908,137.027377 5.35875191,148.930681 5.35875191,148.930681 C5.35875191,148.930681 17.2545988,150.310094 26.0347571,140.762115 C34.8149153,131.214136 32.8007792,118.011181 32.8007792,118.011181 Z" id="Path"></path>
        </g>
        <g filter="url(#filter-1)" id="Group">
            <g transform="translate(1.000000, 0.000000)">
                <path d="M113.63881,238.361702 C106.449008,231.212766 94.8654391,231.212766 88.0750708,238.361702 L5.39235127,320.574468 C-1.79745042,327.723404 -1.79745042,339.241135 5.39235127,345.992908 L27.3611898,367.836879 C30.9560907,371.411348 35.3498584,373 40.1430595,373 C44.9362606,373 49.7294618,371.014184 52.9249292,367.836879 L135.607649,285.624113 C142.79745,278.475177 142.79745,266.957447 135.607649,260.205674 L113.63881,238.361702 Z" id="Path" fill="#000000" fill-rule="nonzero"></path>
                <path d="M334.516907,39.738104 C281.872783,-13.2460347 196.126672,-13.2460347 143.482548,39.738104 C96.4218913,86.746588 90.8384236,161.641461 129.922698,215.023976 L125.535687,219.406123 C121.547496,223.389893 121.547496,230.162302 125.535687,234.146072 L139.893176,248.487643 C143.881367,252.471413 150.661292,252.471413 154.649483,248.487643 L159.036493,244.105496 C182.566822,261.634083 210.882979,270 238.800318,270 C273.497581,270 308.593664,256.85356 334.516907,230.560679 C387.161031,177.57654 387.161031,92.3238657 334.516907,39.738104 Z M322.437332,218.47114 C299.970068,240.913496 270.454251,253.23479 238.735761,253.23479 C207.017271,253.23479 177.501453,240.913496 155.03419,218.47114 C108.778058,172.266289 108.778058,97.4584358 155.03419,51.6936312 C201.290321,5.48878041 276.621735,5.48878041 322.437332,51.253585 C368.693463,97.4584358 368.693463,172.266289 322.437332,218.47114 Z" id="Shape" fill="#000000" fill-rule="nonzero"></path>
            </g>
        </g>
    </g>
</svg>