<svg height='100px' width='100px'  fill="#000000" xmlns="http://www.w3.org/2000/svg" data-name="Layer 1" viewBox="0 0 80 80" x="0px" y="0px"><title>open-new-tab-01</title><path d="M58,73H11a6,6,0,0,1-6-6V20a6,6,0,0,1,6-6H32a2,2,0,0,1,0,4H11a2,2,0,0,0-2,2V67a2,2,0,0,0,2,2H58a2,2,0,0,0,2-2V46a2,2,0,0,1,4,0V67A6,6,0,0,1,58,73Z"></path><path d="M49.2,12.07a2,2,0,0,1,0-4L66,8h0a2,2,0,0,1,0,4l-16.81.07Z"></path><path d="M68,31a2,2,0,0,1-2-2l-.09-17.76a2,2,0,0,1,2-2h0a2,2,0,0,1,2,2L70,29a2,2,0,0,1-2,2Z"></path><path d="M46.67,33.66a2,2,0,0,1-1.41-.58,2,2,0,0,1,0-2.83L64.9,10.61a2,2,0,0,1,2.83,2.82L48.08,33.08A2,2,0,0,1,46.67,33.66Z"></path><circle cx="67.65" cy="9.68" r="1.97"></circle></svg>