<?xml version="1.0" encoding="UTF-8"?>
<svg width="84px" height="84px" viewBox="0 0 84 84" version="1.1" xmlns="http://www.w3.org/2000/svg" xmlns:xlink="http://www.w3.org/1999/xlink">
    <title>receive_funds</title>
    <defs>
        <filter color-interpolation-filters="auto" id="filter-1">
            <feColorMatrix in="SourceGraphic" type="matrix" values="0 0 0 0 0.200000 0 0 0 0 0.200000 0 0 0 0 0.200000 0 0 0 1.000000 0"></feColorMatrix>
        </filter>
        <filter color-interpolation-filters="auto" id="filter-2">
            <feColorMatrix in="SourceGraphic" type="matrix" values="0 0 0 0 1.000000 0 0 0 0 1.000000 0 0 0 0 1.000000 0 0 0 1.000000 0"></feColorMatrix>
        </filter>
    </defs>
    <g id="Page-1" stroke="none" stroke-width="1" fill="none" fill-rule="evenodd">
        <g filter="url(#filter-1)" id="receive_funds">
            <g>
                <g id="noun_money-send_3493478" transform="translate(41.666667, 41.666667) scale(-1, 1) translate(-41.666667, -41.666667) " fill="#FFFFFF" fill-rule="nonzero">
                    <path d="M47.725,58.2854167 L35.4166667,56.5270833 L35.4166667,55.4541667 L38,54.1625 C47.075,53.9895833 52.0833333,49.1770833 52.0833333,45.8333333 L52.0833333,44.9708333 L48.7791667,41.6666667 L47.9166667,41.6666667 C33.3895833,41.6666667 26.675,41.6666667 11.9479167,50 L8.33333333,50 L6.25,50 L0,50 L0,54.1666667 L4.16666667,54.1666667 L4.16666667,79.1666667 L0,79.1666667 L0,83.3333333 L8.33333333,83.3333333 L8.33333333,75 L12.3708333,75 L46.3604167,79.23125 L83.3333333,59.5854167 L83.3333333,55.3875 L82.7229167,54.7770833 C77.6270833,49.675 66.4791667,52.05625 47.725,58.2854167 Z M45.5666667,74.9354167 L12.7583333,70.85 L8.33333333,70.8395833 L8.33333333,54.1666667 L13.0541667,54.1666667 L13.5333333,53.8916667 C27.35,45.9958333 33.3291667,45.8375 47.0541667,45.8333333 L47.6041667,46.3833333 C46.64375,47.6541667 43.4895833,50 37.5,50 L37.0083333,50 L31.25,52.8791667 L31.25,60.1395833 L48.1083333,62.5479167 L48.5770833,62.3916667 C61.7541667,58.0020833 74.46875,54.38125 79.0395833,57.1479167 L45.5666667,74.9354167 Z M62.5,41.6666667 C73.9875,41.6666667 83.3333333,32.3208333 83.3333333,20.8333333 C83.3333333,9.34583333 73.9875,0 62.5,0 C51.0125,0 41.6666667,9.34583333 41.6666667,20.8333333 C41.6666667,32.3208333 51.0125,41.6666667 62.5,41.6666667 Z M62.5,4.16666667 C71.6895833,4.16666667 79.1666667,11.64375 79.1666667,20.8333333 C79.1666667,30.0229167 71.6895833,37.5 62.5,37.5 C53.3104167,37.5 45.8333333,30.0229167 45.8333333,20.8333333 C45.8333333,11.64375 53.3104167,4.16666667 62.5,4.16666667 Z" id="Shape"></path>
                </g>
                <g filter="url(#filter-2)" id="Group">
                    <g transform="translate(11.000000, 9.000000)">
                        <path d="M10.8161488,15.8529077 C10.8161488,15.8529077 14.0874728,16.6791893 16.6790026,14.5897205 C19.2705324,12.5002517 19.1891945,9.3492913 19.1891945,9.3492913 C19.1891945,9.3492913 16.2568771,8.41271692 13.5935088,10.4052987 C10.9301405,12.3978805 10.8161488,15.8529077 10.8161488,15.8529077 Z" id="Path" fill="#253A7E" fill-rule="nonzero"></path>
                        <path d="M10.8054621,17.4286925 C10.8054621,17.4286925 11.3397981,19.7923699 13.4349891,20.7953636 C15.5301801,21.7983574 17.427073,20.7472248 17.427073,20.7472248 C17.427073,20.7472248 17.070849,18.5663532 15.0089056,17.4859717 C12.9469622,16.4055901 10.8054621,17.4286925 10.8054621,17.4286925 Z" id="Path" fill="#253A7E" fill-rule="nonzero"></path>
                        <path d="M15.7350089,16.4055901 C15.7350089,16.4055901 16.8660202,17.6961982 18.5165248,17.5792025 C20.1670295,17.4622069 21,16.1301629 21,16.1301629 C21,16.1301629 20.0399763,14.8919592 18.3876905,14.9480196 C16.7354047,15.00408 15.7350089,16.4055901 15.7350089,16.4055901 Z" id="Path" fill="#253A7E" fill-rule="nonzero"></path>
                        <path d="M14.080942,8.25916015 C14.080942,8.25916015 12.3372254,5.30075507 9.06471403,4.89736389 C5.79220265,4.49397271 3.67920047,6.78148099 3.67920047,6.78148099 C3.67920047,6.78148099 5.10765882,9.57170486 8.36354641,10.0957478 C11.619434,10.6197907 14.080942,8.25916015 14.080942,8.25916015 Z" id="Path" fill="#253A7E" fill-rule="nonzero"></path>
                        <path d="M15.1733624,7.1525765 C15.1733624,7.1525765 16.4248961,5.09418466 15.6334851,2.86395549 C14.842074,0.633726321 12.7771621,0 12.7771621,0 C12.7771621,0 11.530378,1.8024639 12.242826,4.06072327 C12.9552741,6.31898265 15.1733624,7.1525765 15.1733624,7.1525765 Z" id="Path" fill="#253A7E" fill-rule="nonzero"></path>
                        <path d="M10.9835741,4.29898 C10.9835741,4.29898 11.0726301,2.5653729 9.82465862,1.44964896 C8.57668712,0.333925023 7.0710469,0.672115512 7.0710469,0.672115512 C7.0710469,0.672115512 6.89649713,2.24424427 8.10469028,3.40506027 C9.31288344,4.56587628 10.9835741,4.29898 10.9835741,4.29898 Z" id="Path" fill="#253A7E" fill-rule="nonzero"></path>
                        <path d="M8.04888185,12.3247582 C8.04888185,12.3247582 5.16465466,14.1144258 4.77221453,17.4731753 C4.37977439,20.8319248 6.60736196,23 6.60736196,23 C6.60736196,23 9.32594498,21.5375546 9.83653275,18.1928202 C10.3471205,14.8480858 8.04888185,12.3247582 8.04888185,12.3247582 Z" id="Path" fill="#253A7E" fill-rule="nonzero"></path>
                        <path d="M6.96892935,11.2017221 C6.96892935,11.2017221 4.96160697,9.91781693 2.79042153,10.7300835 C0.619236097,11.54235 0,13.661677 0,13.661677 C0,13.661677 1.75618444,14.9413167 3.95646151,14.2100941 C6.15673857,13.4788714 6.96892935,11.2017221 6.96892935,11.2017221 Z" id="Path" fill="#253A7E" fill-rule="nonzero"></path>
                        <path d="M4.18978824,15.5037488 C4.18978824,15.5037488 2.50069266,15.4117367 1.41420938,16.692595 C0.327726103,17.9734534 0.6548585,19.5193801 0.6548585,19.5193801 C0.6548585,19.5193801 2.18721552,19.6985296 3.3182268,18.4584978 C4.44923808,17.218466 4.18978824,15.5037488 4.18978824,15.5037488 Z" id="Path" fill="#253A7E" fill-rule="nonzero"></path>
                    </g>
                </g>
            </g>
        </g>
    </g>
</svg>