<svg height='100px' width='100px'  fill="#FFFFFF" xmlns="http://www.w3.org/2000/svg" xmlns:xlink="http://www.w3.org/1999/xlink" xml:space="preserve" version="1.1" style="shape-rendering:geometricPrecision;text-rendering:geometricPrecision;image-rendering:optimizeQuality;" viewBox="0 0 306 317" x="0px" y="0px" fill-rule="evenodd" clip-rule="evenodd"><defs><style type="text/css">
   
    .fil0 {fill:#FFFFFF}
   
  </style></defs><g><path class="fil0" d="M176 216l0 25 -20 4c-2,7 -5,14 -9,20l12 17 -17 17 -18 -11c-6,4 -12,6 -19,8l-5 21 -24 0 -4 -21c-7,-2 -14,-4 -20,-8l-18 11 -17 -17 12 -17c-4,-6 -7,-13 -8,-20l-21 -4 0 -25 21 -4c1,-7 4,-13 8,-20l-12 -17 17 -17 18 11c6,-3 13,-6 20,-8l4 -20 24 0 5 20c7,2 13,5 19,8l18 -11 17 17 -12 17c4,7 7,13 9,20l20 4zm-88 -22c-19,0 -34,16 -34,35 0,19 15,34 34,34 19,0 34,-15 34,-34 0,-19 -15,-35 -34,-35z"></path><path class="fil0" d="M306 130l0 19 -16 3c-1,6 -3,11 -6,15l9 14 -13 13 -14 -9c-4,3 -9,5 -15,6l-3 16 -18 0 -4 -16c-5,-1 -10,-3 -15,-6l-13 9 -13 -13 9 -14c-3,-4 -5,-9 -7,-15l-15 -3 0 -19 15 -3c2,-5 4,-10 7,-15l-9 -13 13 -13 13 8c5,-2 10,-4 15,-6l4 -16 18 0 3 16c6,2 11,4 15,6l14 -8 13 13 -9 13c3,5 5,10 6,15l16 3zm-67 -16c-15,0 -26,11 -26,26 0,14 11,26 26,26 14,0 26,-12 26,-26 0,-15 -12,-26 -26,-26z"></path><path class="fil0" d="M162 47l0 15 -13 3c-1,4 -3,8 -5,12l7 11 -10 10 -11 -7c-4,2 -8,4 -12,5l-3 13 -15 0 -3 -13c-4,-1 -8,-3 -12,-5l-11 7 -10 -10 7 -11c-3,-4 -4,-8 -5,-12l-13 -3 0 -15 13 -3c1,-4 2,-8 5,-12l-7 -11 10 -10 11 7c4,-2 8,-4 12,-5l3 -13 15 0 3 13c4,1 8,3 12,5l11 -7 10 10 -7 11c2,4 4,8 5,12l13 3zm-55 -14c-11,0 -21,10 -21,21 0,12 10,22 21,22 12,0 22,-10 22,-22 0,-11 -10,-21 -22,-21z"></path></g></svg>