<svg height='100px' width='100px'  fill="#000000" xmlns="http://www.w3.org/2000/svg" viewBox="0 0 64 64" x="0px" y="0px"><title>start-motorcycle-part-transport-engine</title><g><path d="M5,3V45A17.019,17.019,0,0,0,22,62H42A17.019,17.019,0,0,0,59,45V3a1,1,0,0,0-1-1H6A1,1,0,0,0,5,3ZM7,4H57V45A15.017,15.017,0,0,1,42,60H22A15.017,15.017,0,0,1,7,45Z"></path><path d="M27.148,30.134,29.617,33.1l-1.779,4.572a1,1,0,0,0,1.513,1.176l5.976-4.269a1,1,0,0,0,.313-1.261l-1.385-2.769,2.052-2.052a1,1,0,0,0,.15-1.222l-2.159-3.6,1.155-1.155a1,1,0,0,0-.107-1.507L31.931,18.45a1,1,0,0,0-1.307.093l-3.415,3.414a1,1,0,0,0-.15,1.222l2.159,3.6-2.009,2.009A1,1,0,0,0,27.148,30.134Zm2.028-7.315,2.249-2.249,1.8,1.349-.891.892a1,1,0,0,0-.151,1.221l2.159,3.6-2.008,2.01a1,1,0,0,0-.188,1.154l1.325,2.649-2.552,1.824.777-2a1,1,0,0,0-.164-1l-2.26-2.713,1.915-1.915a1,1,0,0,0,.15-1.222Z"></path><path d="M18.515,41.008l4.21-2.53a1,1,0,0,0,.213-1.543,12.508,12.508,0,1,1,21.6-8.923l-2.091-.618a1,1,0,0,0-1.279,1.051l1.177,12.648a1,1,0,0,0,.648.845,1.021,1.021,0,0,0,.347.062,1,1,0,0,0,.7-.28l9.754-9.412a1,1,0,0,0-.411-1.679l-2.408-.713Q51,29.394,51,28.84A19,19,0,1,0,17.223,40.779,1,1,0,0,0,18.515,41.008ZM32,11.84a17.019,17.019,0,0,1,17,17,14.257,14.257,0,0,1-.093,1.684,1,1,0,0,0,.71,1.078l1.547.458-7.023,6.776-.848-9.106,1.923.569a1,1,0,0,0,1.28-.867c.033-.361.044-.721.044-1.092a14.505,14.505,0,1,0-25.864,9.035L18.25,38.834A17,17,0,0,1,32,11.84Z"></path><path d="M19,46v4a3,3,0,0,0,3,3H42a3,3,0,0,0,3-3V46H43v4a1,1,0,0,1-1,1H22a1,1,0,0,1-1-1V46Z"></path><path d="M47,51a4,4,0,0,1-4,4H21a4,4,0,0,1-4-4V46H15v5a6.006,6.006,0,0,0,6,6H43a6.006,6.006,0,0,0,6-6V46H47Z"></path></g></svg>