<svg height='100px' width='100px'  fill="#000000" xmlns="http://www.w3.org/2000/svg" data-name="Layer 1" viewBox="0 0 74 74" x="0px" y="0px"><title>sync </title><desc> sync </desc><metadata><?xpacket begin="&#65279;" id="W5M0MpCehiHzreSzNTczkc9d"?><x:xmpmeta xmlns:x="adobe:ns:meta/" x:xmptk="Adobe XMP Core 6.0-c002 79.164352, 2020/01/30-15:50:38        "></x:xmpmeta><?xpacket end="w"?></metadata><path d="M55,24a13.78657,13.78657,0,0,0-2.58057.24268,19.99632,19.99632,0,0,0-39.417,4.44384A11.99936,11.99936,0,0,0,17,52H27V63a2,2,0,0,0,4,0V37a1.99993,1.99993,0,0,0-3.41406-1.41406l-5,5a1.99978,1.99978,0,0,0,2.82812,2.82812L27,41.82861V48H17a7.99994,7.99994,0,0,1-1.55078-15.84814,2.00073,2.00073,0,0,0,1.605-2.1167C17.02783,29.6958,17,29.34814,17,29a15.99543,15.99543,0,0,1,31.86572-2.00146,2,2,0,0,0,2.68164,1.626A9.86693,9.86693,0,0,1,55,28a10,10,0,0,1,0,20H47V37a2,2,0,0,0-4,0V63a1.99978,1.99978,0,0,0,3.41406,1.41406l5-5a1.99978,1.99978,0,0,0-2.82812-2.82812L47,58.17139V52h8a14,14,0,0,0,0-28Z"></path><path d="M37,28a2.0001,2.0001,0,0,0-2,2V56a2,2,0,0,0,4,0V30A2.0001,2.0001,0,0,0,37,28Z"></path></svg>