<?xml version="1.0" standalone="no"?>
<!DOCTYPE svg PUBLIC "-//W3C//DTD SVG 20010904//EN"
 "http://www.w3.org/TR/2001/REC-SVG-20010904/DTD/svg10.dtd">
<svg version="1.0" xmlns="http://www.w3.org/2000/svg"
 width="375.000000pt" height="375.000000pt" viewBox="0 0 375.000000 375.000000"
 preserveAspectRatio="xMidYMid meet">
<metadata>
Created by potrace 1.14, written by Peter Selinger 2001-2017
</metadata>
<g transform="translate(0.000000,375.000000) scale(0.100000,-0.100000)"
fill="#000000" stroke="none">
<path d="M2258 3735 c-2 -2 -28 -7 -57 -10 -176 -20 -415 -116 -580 -233 -89
-62 -266 -241 -326 -327 -96 -138 -197 -375 -220 -515 -17 -103 -20 -148 -19
-285 1 -263 74 -506 214 -717 l38 -58 -34 -37 c-19 -20 -35 -44 -35 -52 -1 -9
-2 -23 -3 -31 -1 -8 4 -26 10 -40 16 -34 187 -200 208 -201 20 -2 42 -2 60 0
7 0 30 16 51 35 l37 35 57 -38 c143 -97 329 -172 486 -197 22 -3 44 -8 49 -11
15 -10 309 -12 366 -3 30 4 74 11 97 14 91 14 248 68 353 121 378 190 643 551
720 977 18 101 22 359 6 433 -3 17 -11 53 -16 80 -30 145 -109 331 -202 470
-60 90 -223 260 -313 327 -177 131 -332 198 -579 250 -48 10 -360 21 -368 13z
m380 -189 c482 -105 835 -468 925 -951 15 -77 17 -340 4 -391 -3 -12 -8 -39
-11 -59 -10 -58 -62 -207 -97 -277 -42 -83 -115 -190 -175 -258 -45 -50 -65
-69 -143 -138 -85 -75 -254 -166 -384 -207 -587 -186 -1212 104 -1451 672 -59
139 -87 271 -90 430 -4 188 28 344 105 512 168 363 514 621 914 680 88 13 319
5 403 -13z"/>
<path d="M2545 3247 c-8 -12 -22 -51 -31 -87 -32 -125 2 -253 89 -341 40 -40
122 -99 138 -99 14 0 49 110 55 173 13 139 -56 276 -176 348 -47 29 -59 30
-75 6z"/>
<path d="M2113 3171 c16 -132 131 -231 269 -231 33 0 38 3 38 24 0 47 -34 128
-72 171 -45 51 -123 85 -195 85 l-46 0 6 -49z"/>
<path d="M2125 2895 c-5 -2 -35 -11 -65 -20 -60 -18 -165 -77 -192 -108 -17
-19 -16 -21 15 -64 60 -85 174 -166 272 -195 59 -17 155 -20 222 -8 71 13 208
73 256 113 l28 24 -39 49 c-69 87 -159 154 -258 188 -43 16 -210 30 -239 21z"/>
<path d="M2798 2565 c-205 -51 -359 -230 -393 -456 -7 -45 -6 -46 22 -52 15
-3 73 -4 128 -2 149 5 249 47 351 149 85 85 136 189 151 312 5 39 3 45 -18 53
-38 13 -179 11 -241 -4z"/>
<path d="M1805 2457 c-45 -11 -131 -63 -165 -99 -22 -23 -80 -117 -80 -130 0
-16 120 -51 187 -54 111 -5 192 28 277 112 29 29 86 112 86 125 0 4 -26 17
-57 29 -66 25 -186 33 -248 17z"/>
<path d="M2120 2273 c-97 -89 -147 -170 -175 -281 -37 -151 4 -320 109 -446
23 -28 24 -28 51 -10 86 56 172 166 206 261 25 68 33 195 17 268 -19 89 -101
246 -135 259 -6 3 -39 -20 -73 -51z"/>
<path d="M2927 2116 c-40 -15 -109 -59 -128 -82 -24 -29 108 -104 185 -104 61
0 134 29 177 70 48 46 46 52 -32 94 -61 34 -146 43 -202 22z"/>
<path d="M1789 2074 c-100 -30 -172 -130 -178 -243 l-3 -54 50 6 c131 15 217
109 229 248 l6 59 -29 -1 c-16 0 -50 -7 -75 -15z"/>
<path d="M2457 1956 c-27 -8 -51 -17 -54 -19 -3 -3 9 -35 26 -71 39 -80 105
-148 179 -183 49 -23 70 -27 152 -27 113 0 166 19 154 57 -28 90 -105 179
-191 222 -66 32 -192 42 -266 21z"/>
<path d="M948 1392 c-24 -11 -203 -181 -477 -453 -366 -363 -441 -443 -450
-475 -27 -96 -12 -125 143 -283 169 -172 223 -197 321 -152 27 12 185 162 476
452 371 369 439 440 448 474 27 99 7 138 -161 301 -103 101 -143 134 -173 143
-55 15 -84 13 -127 -7z"/>
</g>
</svg>
